# xmcd CD database file
#
# Track frame offsets:
#	150
#	31769
#	41898
#	81485
#	113444
#	118631
#	136195
#	170033
#	173352
#	202295
#	207094
#
# Disc length: 3325 seconds
#
# Revision: 0
# Processed by: cddbd v1.5.2PL0 Copyright (c) Steve Scherf et al.
# Submitted via: CDex 1.70beta2
#
DISCID=930cfb0b
DTITLE=Arnie Somogyi's Ambulance - Accident And Insurgency
DYEAR=2007
DGENRE=Jazz
TTITLE0=Walking Wounded
TTITLE1=Mick The Fish
TTITLE2=Captain Courageous
TTITLE3=Tumbledown
TTITLE4=Lobster Pot 999
TTITLE5=Don't Improvise
TTITLE6=Solace
TTITLE7=Serenity
TTITLE8=Adrift
TTITLE9=Sirenity (aka Deaf On Arrival)
TTITLE10=Broadside
EXTD=YEAR: 2007
EXTT0=
EXTT1=
EXTT2=
EXTT3=
EXTT4=
EXTT5=
EXTT6=
EXTT7=
EXTT8=
EXTT9=
EXTT10=
PLAYORDER=
